<svg width="56" height="56" viewBox="0 0 56 56" fill="none" xmlns="http://www.w3.org/2000/svg">
<g filter="url(#filter0_d_4_33)">
<rect x="4" width="48" height="48" fill="#D9D9D9"/>
</g>
<g filter="url(#filter1_d_4_33)">
<circle cx="12" cy="11" r="8" fill="#CDEB17"/>
<circle cx="12" cy="11" r="7.5" stroke="black"/>
</g>
<g filter="url(#filter2_d_4_33)">
<circle cx="12" cy="38" r="8" fill="#CDEB17"/>
<circle cx="12" cy="38" r="7.5" stroke="black"/>
</g>
<rect x="38.5" y="2.5" width="12" height="43" fill="#95EDE3" stroke="black"/>
<path d="M42.7071 24.7071C43.0976 24.3166 43.0976 23.6834 42.7071 23.2929L36.3431 16.9289C35.9526 16.5384 35.3195 16.5384 34.9289 16.9289C34.5384 17.3195 34.5384 17.9526 34.9289 18.3431L40.5858 24L34.9289 29.6569C34.5384 30.0474 34.5384 30.6805 34.9289 31.0711C35.3195 31.4616 35.9526 31.4616 36.3431 31.0711L42.7071 24.7071ZM20 25L42 25V23L20 23V25Z" fill="black"/>
<line x1="12.5" y1="19" x2="12.5" y2="30" stroke="black"/>
<defs>
<filter id="filter0_d_4_33" x="0" y="0" width="56" height="56" filterUnits="userSpaceOnUse" color-interpolation-filters="sRGB">
<feFlood flood-opacity="0" result="BackgroundImageFix"/>
<feColorMatrix in="SourceAlpha" type="matrix" values="0 0 0 0 0 0 0 0 0 0 0 0 0 0 0 0 0 0 127 0" result="hardAlpha"/>
<feOffset dy="4"/>
<feGaussianBlur stdDeviation="2"/>
<feComposite in2="hardAlpha" operator="out"/>
<feColorMatrix type="matrix" values="0 0 0 0 0 0 0 0 0 0 0 0 0 0 0 0 0 0 0.25 0"/>
<feBlend mode="normal" in2="BackgroundImageFix" result="effect1_dropShadow_4_33"/>
<feBlend mode="normal" in="SourceGraphic" in2="effect1_dropShadow_4_33" result="shape"/>
</filter>
<filter id="filter1_d_4_33" x="0" y="3" width="24" height="24" filterUnits="userSpaceOnUse" color-interpolation-filters="sRGB">
<feFlood flood-opacity="0" result="BackgroundImageFix"/>
<feColorMatrix in="SourceAlpha" type="matrix" values="0 0 0 0 0 0 0 0 0 0 0 0 0 0 0 0 0 0 127 0" result="hardAlpha"/>
<feOffset dy="4"/>
<feGaussianBlur stdDeviation="2"/>
<feComposite in2="hardAlpha" operator="out"/>
<feColorMatrix type="matrix" values="0 0 0 0 0 0 0 0 0 0 0 0 0 0 0 0 0 0 0.25 0"/>
<feBlend mode="normal" in2="BackgroundImageFix" result="effect1_dropShadow_4_33"/>
<feBlend mode="normal" in="SourceGraphic" in2="effect1_dropShadow_4_33" result="shape"/>
</filter>
<filter id="filter2_d_4_33" x="0" y="30" width="24" height="24" filterUnits="userSpaceOnUse" color-interpolation-filters="sRGB">
<feFlood flood-opacity="0" result="BackgroundImageFix"/>
<feColorMatrix in="SourceAlpha" type="matrix" values="0 0 0 0 0 0 0 0 0 0 0 0 0 0 0 0 0 0 127 0" result="hardAlpha"/>
<feOffset dy="4"/>
<feGaussianBlur stdDeviation="2"/>
<feComposite in2="hardAlpha" operator="out"/>
<feColorMatrix type="matrix" values="0 0 0 0 0 0 0 0 0 0 0 0 0 0 0 0 0 0 0.25 0"/>
<feBlend mode="normal" in2="BackgroundImageFix" result="effect1_dropShadow_4_33"/>
<feBlend mode="normal" in="SourceGraphic" in2="effect1_dropShadow_4_33" result="shape"/>
</filter>
</defs>
</svg>
