<svg width="56" height="56" viewBox="0 0 56 56" fill="none" xmlns="http://www.w3.org/2000/svg">
<g filter="url(#filter0_d_2_26)">
<rect x="4" width="48" height="48" fill="#D9D9D9"/>
</g>
<rect x="36.5" y="2.5" width="12" height="43" fill="#95EDE3" stroke="black"/>
<g filter="url(#filter1_d_2_26)">
<circle cx="16" cy="24" r="8" fill="#CDEB17"/>
<circle cx="16" cy="24" r="7.5" stroke="black"/>
</g>
<path d="M40.2071 24.7071C40.5976 24.3166 40.5976 23.6834 40.2071 23.2929L33.8431 16.9289C33.4526 16.5384 32.8195 16.5384 32.4289 16.9289C32.0384 17.3195 32.0384 17.9526 32.4289 18.3431L38.0858 24L32.4289 29.6569C32.0384 30.0474 32.0384 30.6805 32.4289 31.0711C32.8195 31.4616 33.4526 31.4616 33.8431 31.0711L40.2071 24.7071ZM17.5 25L39.5 25V23L17.5 23V25Z" fill="black"/>
<defs>
<filter id="filter0_d_2_26" x="0" y="0" width="56" height="56" filterUnits="userSpaceOnUse" color-interpolation-filters="sRGB">
<feFlood flood-opacity="0" result="BackgroundImageFix"/>
<feColorMatrix in="SourceAlpha" type="matrix" values="0 0 0 0 0 0 0 0 0 0 0 0 0 0 0 0 0 0 127 0" result="hardAlpha"/>
<feOffset dy="4"/>
<feGaussianBlur stdDeviation="2"/>
<feComposite in2="hardAlpha" operator="out"/>
<feColorMatrix type="matrix" values="0 0 0 0 0 0 0 0 0 0 0 0 0 0 0 0 0 0 0.25 0"/>
<feBlend mode="normal" in2="BackgroundImageFix" result="effect1_dropShadow_2_26"/>
<feBlend mode="normal" in="SourceGraphic" in2="effect1_dropShadow_2_26" result="shape"/>
</filter>
<filter id="filter1_d_2_26" x="4" y="16" width="24" height="24" filterUnits="userSpaceOnUse" color-interpolation-filters="sRGB">
<feFlood flood-opacity="0" result="BackgroundImageFix"/>
<feColorMatrix in="SourceAlpha" type="matrix" values="0 0 0 0 0 0 0 0 0 0 0 0 0 0 0 0 0 0 127 0" result="hardAlpha"/>
<feOffset dy="4"/>
<feGaussianBlur stdDeviation="2"/>
<feComposite in2="hardAlpha" operator="out"/>
<feColorMatrix type="matrix" values="0 0 0 0 0 0 0 0 0 0 0 0 0 0 0 0 0 0 0.25 0"/>
<feBlend mode="normal" in2="BackgroundImageFix" result="effect1_dropShadow_2_26"/>
<feBlend mode="normal" in="SourceGraphic" in2="effect1_dropShadow_2_26" result="shape"/>
</filter>
</defs>
</svg>
