<svg width="56" height="56" viewBox="0 0 56 56" fill="none" xmlns="http://www.w3.org/2000/svg">
<g filter="url(#filter0_d_4_34)">
<rect x="4" width="48" height="48" fill="#D9D9D9"/>
</g>
<rect x="36.5" y="2.5" width="12" height="43" fill="#95EDE3" stroke="black"/>
<g filter="url(#filter1_d_4_34)">
<circle cx="16" cy="24" r="8" fill="#CDEB17"/>
<circle cx="16" cy="24" r="6.5" stroke="#FB0000" stroke-width="3"/>
</g>
<path d="M27.2929 23.2929C26.9024 23.6834 26.9024 24.3166 27.2929 24.7071L33.6569 31.0711C34.0474 31.4616 34.6805 31.4616 35.0711 31.0711C35.4616 30.6805 35.4616 30.0474 35.0711 29.6569L29.4142 24L35.0711 18.3431C35.4616 17.9526 35.4616 17.3195 35.0711 16.9289C34.6805 16.5384 34.0474 16.5384 33.6569 16.9289L27.2929 23.2929ZM40 23H28V25H40V23Z" fill="black"/>
<defs>
<filter id="filter0_d_4_34" x="0" y="0" width="56" height="56" filterUnits="userSpaceOnUse" color-interpolation-filters="sRGB">
<feFlood flood-opacity="0" result="BackgroundImageFix"/>
<feColorMatrix in="SourceAlpha" type="matrix" values="0 0 0 0 0 0 0 0 0 0 0 0 0 0 0 0 0 0 127 0" result="hardAlpha"/>
<feOffset dy="4"/>
<feGaussianBlur stdDeviation="2"/>
<feComposite in2="hardAlpha" operator="out"/>
<feColorMatrix type="matrix" values="0 0 0 0 0 0 0 0 0 0 0 0 0 0 0 0 0 0 0.25 0"/>
<feBlend mode="normal" in2="BackgroundImageFix" result="effect1_dropShadow_4_34"/>
<feBlend mode="normal" in="SourceGraphic" in2="effect1_dropShadow_4_34" result="shape"/>
</filter>
<filter id="filter1_d_4_34" x="4" y="16" width="24" height="24" filterUnits="userSpaceOnUse" color-interpolation-filters="sRGB">
<feFlood flood-opacity="0" result="BackgroundImageFix"/>
<feColorMatrix in="SourceAlpha" type="matrix" values="0 0 0 0 0 0 0 0 0 0 0 0 0 0 0 0 0 0 127 0" result="hardAlpha"/>
<feOffset dy="4"/>
<feGaussianBlur stdDeviation="2"/>
<feComposite in2="hardAlpha" operator="out"/>
<feColorMatrix type="matrix" values="0 0 0 0 0 0 0 0 0 0 0 0 0 0 0 0 0 0 0.25 0"/>
<feBlend mode="normal" in2="BackgroundImageFix" result="effect1_dropShadow_4_34"/>
<feBlend mode="normal" in="SourceGraphic" in2="effect1_dropShadow_4_34" result="shape"/>
</filter>
</defs>
</svg>
