<svg width="56" height="56" viewBox="0 0 56 56" fill="none" xmlns="http://www.w3.org/2000/svg">
<g filter="url(#filter0_d_4_39)">
<rect x="4" width="48" height="48" fill="#D9D9D9"/>
</g>
<g filter="url(#filter1_d_4_39)">
<circle cx="12" cy="11" r="8" fill="#CDEB17"/>
<circle cx="12" cy="11" r="6.5" stroke="#FB0000" stroke-width="3"/>
</g>
<g filter="url(#filter2_d_4_39)">
<circle cx="12" cy="38" r="8" fill="#CDEB17"/>
<circle cx="12" cy="38" r="6.5" stroke="#FB0000" stroke-width="3"/>
</g>
<rect x="38.5" y="2.5" width="12" height="43" fill="#95EDE3" stroke="black"/>
<path d="M19.2929 23.2929C18.9024 23.6834 18.9024 24.3166 19.2929 24.7071L25.6569 31.0711C26.0474 31.4616 26.6805 31.4616 27.0711 31.0711C27.4616 30.6805 27.4616 30.0474 27.0711 29.6569L21.4142 24L27.0711 18.3431C27.4616 17.9526 27.4616 17.3195 27.0711 16.9289C26.6805 16.5384 26.0474 16.5384 25.6569 16.9289L19.2929 23.2929ZM42 23L20 23V25L42 25V23Z" fill="black"/>
<line x1="12.5" y1="19" x2="12.5" y2="30" stroke="#FB0000"/>
<defs>
<filter id="filter0_d_4_39" x="0" y="0" width="56" height="56" filterUnits="userSpaceOnUse" color-interpolation-filters="sRGB">
<feFlood flood-opacity="0" result="BackgroundImageFix"/>
<feColorMatrix in="SourceAlpha" type="matrix" values="0 0 0 0 0 0 0 0 0 0 0 0 0 0 0 0 0 0 127 0" result="hardAlpha"/>
<feOffset dy="4"/>
<feGaussianBlur stdDeviation="2"/>
<feComposite in2="hardAlpha" operator="out"/>
<feColorMatrix type="matrix" values="0 0 0 0 0 0 0 0 0 0 0 0 0 0 0 0 0 0 0.25 0"/>
<feBlend mode="normal" in2="BackgroundImageFix" result="effect1_dropShadow_4_39"/>
<feBlend mode="normal" in="SourceGraphic" in2="effect1_dropShadow_4_39" result="shape"/>
</filter>
<filter id="filter1_d_4_39" x="0" y="3" width="24" height="24" filterUnits="userSpaceOnUse" color-interpolation-filters="sRGB">
<feFlood flood-opacity="0" result="BackgroundImageFix"/>
<feColorMatrix in="SourceAlpha" type="matrix" values="0 0 0 0 0 0 0 0 0 0 0 0 0 0 0 0 0 0 127 0" result="hardAlpha"/>
<feOffset dy="4"/>
<feGaussianBlur stdDeviation="2"/>
<feComposite in2="hardAlpha" operator="out"/>
<feColorMatrix type="matrix" values="0 0 0 0 0 0 0 0 0 0 0 0 0 0 0 0 0 0 0.25 0"/>
<feBlend mode="normal" in2="BackgroundImageFix" result="effect1_dropShadow_4_39"/>
<feBlend mode="normal" in="SourceGraphic" in2="effect1_dropShadow_4_39" result="shape"/>
</filter>
<filter id="filter2_d_4_39" x="0" y="30" width="24" height="24" filterUnits="userSpaceOnUse" color-interpolation-filters="sRGB">
<feFlood flood-opacity="0" result="BackgroundImageFix"/>
<feColorMatrix in="SourceAlpha" type="matrix" values="0 0 0 0 0 0 0 0 0 0 0 0 0 0 0 0 0 0 127 0" result="hardAlpha"/>
<feOffset dy="4"/>
<feGaussianBlur stdDeviation="2"/>
<feComposite in2="hardAlpha" operator="out"/>
<feColorMatrix type="matrix" values="0 0 0 0 0 0 0 0 0 0 0 0 0 0 0 0 0 0 0.25 0"/>
<feBlend mode="normal" in2="BackgroundImageFix" result="effect1_dropShadow_4_39"/>
<feBlend mode="normal" in="SourceGraphic" in2="effect1_dropShadow_4_39" result="shape"/>
</filter>
</defs>
</svg>
