<svg width="56" height="56" viewBox="0 0 56 56" fill="none" xmlns="http://www.w3.org/2000/svg">
<g filter="url(#filter0_d_4_66)">
<rect x="4" width="48" height="48" fill="#D9D9D9"/>
</g>
<line x1="9.5" y1="34" x2="9.5" y2="44" stroke="black" stroke-width="3"/>
<line x1="46.5" y1="34" x2="46.5" y2="44" stroke="black" stroke-width="3"/>
<line x1="8" y1="42.5" x2="48" y2="42.5" stroke="black" stroke-width="3"/>
<path d="M26.9393 40.0607C27.5251 40.6464 28.4749 40.6464 29.0607 40.0607L38.6066 30.5147C39.1924 29.9289 39.1924 28.9792 38.6066 28.3934C38.0208 27.8076 37.0711 27.8076 36.4853 28.3934L28 36.8787L19.5147 28.3934C18.9289 27.8076 17.9792 27.8076 17.3934 28.3934C16.8076 28.9792 16.8076 29.9289 17.3934 30.5147L26.9393 40.0607ZM26.5 8L26.5 39H29.5L29.5 8H26.5Z" fill="black"/>
<defs>
<filter id="filter0_d_4_66" x="0" y="0" width="56" height="56" filterUnits="userSpaceOnUse" color-interpolation-filters="sRGB">
<feFlood flood-opacity="0" result="BackgroundImageFix"/>
<feColorMatrix in="SourceAlpha" type="matrix" values="0 0 0 0 0 0 0 0 0 0 0 0 0 0 0 0 0 0 127 0" result="hardAlpha"/>
<feOffset dy="4"/>
<feGaussianBlur stdDeviation="2"/>
<feComposite in2="hardAlpha" operator="out"/>
<feColorMatrix type="matrix" values="0 0 0 0 0 0 0 0 0 0 0 0 0 0 0 0 0 0 0.25 0"/>
<feBlend mode="normal" in2="BackgroundImageFix" result="effect1_dropShadow_4_66"/>
<feBlend mode="normal" in="SourceGraphic" in2="effect1_dropShadow_4_66" result="shape"/>
</filter>
</defs>
</svg>
