<svg width="56" height="56" viewBox="0 0 56 56" fill="none" xmlns="http://www.w3.org/2000/svg">
<g filter="url(#filter0_d_4_65)">
<rect x="4" width="48" height="48" fill="#D9D9D9"/>
</g>
<line x1="9.5" y1="34" x2="9.5" y2="44" stroke="black" stroke-width="3"/>
<line x1="46.5" y1="34" x2="46.5" y2="44" stroke="black" stroke-width="3"/>
<line x1="8" y1="42.5" x2="48" y2="42.5" stroke="black" stroke-width="3"/>
<path d="M29.0607 6.93934C28.4749 6.35355 27.5251 6.35355 26.9393 6.93934L17.3934 16.4853C16.8076 17.0711 16.8076 18.0208 17.3934 18.6066C17.9792 19.1924 18.9289 19.1924 19.5147 18.6066L28 10.1213L36.4853 18.6066C37.0711 19.1924 38.0208 19.1924 38.6066 18.6066C39.1924 18.0208 39.1924 17.0711 38.6066 16.4853L29.0607 6.93934ZM29.5 39L29.5 8H26.5L26.5 39H29.5Z" fill="black"/>
<defs>
<filter id="filter0_d_4_65" x="0" y="0" width="56" height="56" filterUnits="userSpaceOnUse" color-interpolation-filters="sRGB">
<feFlood flood-opacity="0" result="BackgroundImageFix"/>
<feColorMatrix in="SourceAlpha" type="matrix" values="0 0 0 0 0 0 0 0 0 0 0 0 0 0 0 0 0 0 127 0" result="hardAlpha"/>
<feOffset dy="4"/>
<feGaussianBlur stdDeviation="2"/>
<feComposite in2="hardAlpha" operator="out"/>
<feColorMatrix type="matrix" values="0 0 0 0 0 0 0 0 0 0 0 0 0 0 0 0 0 0 0.25 0"/>
<feBlend mode="normal" in2="BackgroundImageFix" result="effect1_dropShadow_4_65"/>
<feBlend mode="normal" in="SourceGraphic" in2="effect1_dropShadow_4_65" result="shape"/>
</filter>
</defs>
</svg>
